<svg width="37" height="37" viewBox="0 0 37 37" fill="none" xmlns="http://www.w3.org/2000/svg">
<path d="M28.6119 15.0597C29.0117 15.0597 29.3952 15.2185 29.6779 15.5012C29.9606 15.7839 30.1194 16.1674 30.1194 16.5672C30.1197 19.5045 29.048 22.3409 27.1054 24.5442C25.1628 26.7474 22.4829 28.1659 19.5687 28.5334L19.5672 31.6418H24.0896C24.4894 31.6418 24.8728 31.8006 25.1555 32.0833C25.4382 32.366 25.597 32.7495 25.597 33.1493C25.597 33.5491 25.4382 33.9325 25.1555 34.2152C24.8728 34.4979 24.4894 34.6567 24.0896 34.6567H12.0299C11.63 34.6567 11.2466 34.4979 10.9639 34.2152C10.6812 33.9325 10.5224 33.5491 10.5224 33.1493C10.5224 32.7495 10.6812 32.366 10.9639 32.0833C11.2466 31.8006 11.63 31.6418 12.0299 31.6418H16.5522V28.5334C13.6377 28.1662 10.9575 26.7479 9.01455 24.5446C7.07165 22.3414 5.99973 19.5047 6 16.5672C6 16.1674 6.15882 15.7839 6.44153 15.5012C6.72423 15.2185 7.10766 15.0597 7.50746 15.0597C7.90727 15.0597 8.2907 15.2185 8.5734 15.5012C8.8561 15.7839 9.01493 16.1674 9.01493 16.5672C9.01493 18.966 9.96786 21.2666 11.6641 22.9628C13.3603 24.659 15.6609 25.6119 18.0597 25.6119C20.4585 25.6119 22.7591 24.659 24.4553 22.9628C26.1516 21.2666 27.1045 18.966 27.1045 16.5672C27.1045 16.1674 27.2633 15.7839 27.546 15.5012C27.8287 15.2185 28.2121 15.0597 28.6119 15.0597ZM18.0597 3C19.6589 3 21.1926 3.63529 22.3235 4.7661C23.4543 5.89692 24.0896 7.43064 24.0896 9.02985V16.5672C24.0896 18.1664 23.4543 19.7001 22.3235 20.8309C21.1926 21.9617 19.6589 22.597 18.0597 22.597C16.4605 22.597 14.9268 21.9617 13.796 20.8309C12.6651 19.7001 12.0299 18.1664 12.0299 16.5672V9.02985C12.0299 7.43064 12.6651 5.89692 13.796 4.7661C14.9268 3.63529 16.4605 3 18.0597 3Z" fill="#799CC2"/>
</svg>
