<svg width="30" height="28" viewBox="0 0 30 28" fill="none" xmlns="http://www.w3.org/2000/svg">
<path d="M19.5 0.5C20.2569 0.499761 20.9858 0.78561 21.5408 1.30025C22.0958 1.81488 22.4357 2.52027 22.4925 3.275L22.5 3.5C22.5 3.8674 22.6349 4.22201 22.8791 4.49656C23.1232 4.77111 23.4596 4.94651 23.8245 4.9895L24 5H25.5C26.6478 4.99994 27.7523 5.43849 28.5874 6.22593C29.4225 7.01336 29.9252 8.09016 29.9925 9.236L30 9.5V23C30.0001 24.1478 29.5615 25.2523 28.7741 26.0874C27.9866 26.9225 26.9098 27.4252 25.764 27.4925L25.5 27.5H4.5C3.35218 27.5001 2.24773 27.0615 1.41261 26.2741C0.57749 25.4866 0.0748387 24.4098 0.00750018 23.264L6.99067e-09 23V9.5C-6.39326e-05 8.35218 0.438488 7.24773 1.22593 6.41261C2.01336 5.57749 3.09016 5.07484 4.236 5.0075L4.5 5H6C6.39782 5 6.77935 4.84196 7.06066 4.56066C7.34196 4.27936 7.5 3.89782 7.5 3.5C7.49976 2.74314 7.78561 2.01415 8.30024 1.45918C8.81488 0.904206 9.52027 0.564265 10.275 0.5075L10.5 0.5H19.5ZM15 11C13.8849 10.9999 12.8095 11.4139 11.9822 12.1616C11.1549 12.9093 10.6348 13.9376 10.5225 15.047L10.506 15.275L10.5 15.5L10.506 15.725C10.55 16.6043 10.851 17.4515 11.3718 18.1614C11.8925 18.8714 12.61 19.413 13.4355 19.7192C14.261 20.0253 15.1582 20.0826 16.0159 19.8839C16.8737 19.6852 17.6543 19.2392 18.2611 18.6013C18.8678 17.9633 19.2741 17.1614 19.4296 16.2947C19.5851 15.4281 19.483 14.5349 19.1359 13.7258C18.7887 12.9167 18.2119 12.2272 17.4767 11.7426C16.7416 11.2581 15.8804 10.9999 15 11Z" fill="#799CC2" />
</svg>
