<svg width="14" height="14" viewBox="0 0 14 14" fill="none" xmlns="http://www.w3.org/2000/svg">
<g clip-path="url(#clip0_399_819)">
<path d="M2.33301 8.16667V6.41667C2.33301 5.17899 2.82467 3.992 3.69984 3.11684C4.57501 2.24167 5.762 1.75 6.99967 1.75C8.23735 1.75 9.42434 2.24167 10.2995 3.11684C11.1747 3.992 11.6663 5.17899 11.6663 6.41667V8.16667" stroke="#CF8E24" stroke-width="1.2" stroke-linecap="round" stroke-linejoin="round"/>
<path d="M10.5 11.0833C10.5 12.0499 8.93317 12.8333 7 12.8333" stroke="#CF8E24" stroke-width="1.2" stroke-linecap="round" stroke-linejoin="round"/>
<path d="M2.33301 8.16667C2.33301 7.85725 2.45592 7.5605 2.67472 7.34171C2.89351 7.12292 3.19026 7 3.49967 7H4.08301C4.39243 7 4.68917 7.12292 4.90797 7.34171C5.12676 7.5605 5.24967 7.85725 5.24967 8.16667V9.91667C5.24967 10.2261 5.12676 10.5228 4.90797 10.7416C4.68917 10.9604 4.39243 11.0833 4.08301 11.0833H3.49967C3.19026 11.0833 2.89351 10.9604 2.67472 10.7416C2.45592 10.5228 2.33301 10.2261 2.33301 9.91667V8.16667Z" stroke="#CF8E24" stroke-width="1.2" stroke-linecap="round" stroke-linejoin="round"/>
<path d="M8.75 8.16667C8.75 7.85725 8.87292 7.5605 9.09171 7.34171C9.3105 7.12292 9.60725 7 9.91667 7H10.5C10.8094 7 11.1062 7.12292 11.325 7.34171C11.5438 7.5605 11.6667 7.85725 11.6667 8.16667V9.91667C11.6667 10.2261 11.5438 10.5228 11.325 10.7416C11.1062 10.9604 10.8094 11.0833 10.5 11.0833H9.91667C9.60725 11.0833 9.3105 10.9604 9.09171 10.7416C8.87292 10.5228 8.75 10.2261 8.75 9.91667V8.16667Z" stroke="#CF8E24" stroke-width="1.2" stroke-linecap="round" stroke-linejoin="round"/>
</g>
<defs>
<clipPath id="clip0_399_819">
<rect width="14" height="14" fill="white"/>
</clipPath>
</defs>
</svg>
