<svg width="55" height="53" viewBox="0 0 55 53" fill="none" xmlns="http://www.w3.org/2000/svg">
<rect width="54.1522" height="53" rx="13.8261" fill="url(#paint0_linear_395_8251)"/>
<g clip-path="url(#clip0_395_8251)">
<path d="M29.957 24.196L35.2029 21.5737C35.3785 21.4859 35.5736 21.4445 35.7697 21.4533C35.9659 21.4621 36.1565 21.5209 36.3235 21.6241C36.4905 21.7273 36.6284 21.8715 36.724 22.0429C36.8197 22.2143 36.87 22.4074 36.8701 22.6037V30.397C36.87 30.5933 36.8197 30.7864 36.724 30.9578C36.6284 31.1292 36.4905 31.2734 36.3235 31.3766C36.1565 31.4798 35.9659 31.5386 35.7697 31.5474C35.5736 31.5562 35.3785 31.5148 35.2029 31.4271L29.957 28.8047V24.196Z" stroke="white" stroke-width="1.84348" stroke-linecap="round" stroke-linejoin="round"/>
<path d="M16.1309 21.8913C16.1309 21.2801 16.3736 20.694 16.8058 20.2618C17.2379 19.8297 17.8241 19.5869 18.4352 19.5869H27.6526C28.2637 19.5869 28.8499 19.8297 29.282 20.2618C29.7142 20.694 29.9569 21.2801 29.9569 21.8913V31.1087C29.9569 31.7198 29.7142 32.3059 29.282 32.7381C28.8499 33.1702 28.2637 33.413 27.6526 33.413H18.4352C17.8241 33.413 17.2379 33.1702 16.8058 32.7381C16.3736 32.3059 16.1309 31.7198 16.1309 31.1087V21.8913Z" stroke="white" stroke-width="1.84348" stroke-linecap="round" stroke-linejoin="round"/>
</g>
<defs>
<linearGradient id="paint0_linear_395_8251" x1="9.21739" y1="4.60869" x2="48.9674" y2="62.7935" gradientUnits="userSpaceOnUse">
<stop stop-color="#4D67A4"/>
<stop offset="1" stop-color="#5EB2CE"/>
</linearGradient>
<clipPath id="clip0_395_8251">
<rect width="27.6522" height="27.6522" fill="white" transform="translate(12.6738 12.6738)"/>
</clipPath>
</defs>
</svg>
