<svg width="55" height="53" viewBox="0 0 55 53" fill="none" xmlns="http://www.w3.org/2000/svg">
<rect width="54.1522" height="53" rx="13.8261" fill="url(#paint0_linear_395_8250)"/>
<g clip-path="url(#clip0_395_8250)">
<path d="M18.4352 20.7392H19.5874C20.1985 20.7392 20.7847 20.4965 21.2168 20.0643C21.649 19.6322 21.8917 19.046 21.8917 18.4349C21.8917 18.1293 22.0131 17.8363 22.2292 17.6202C22.4453 17.4041 22.7383 17.2827 23.0439 17.2827H29.9569C30.2625 17.2827 30.5556 17.4041 30.7717 17.6202C30.9877 17.8363 31.1091 18.1293 31.1091 18.4349C31.1091 19.046 31.3519 19.6322 31.784 20.0643C32.2162 20.4965 32.8023 20.7392 33.4135 20.7392H34.5656C35.1768 20.7392 35.7629 20.982 36.1951 21.4142C36.6272 21.8463 36.87 22.4324 36.87 23.0436V33.4131C36.87 34.0243 36.6272 34.6104 36.1951 35.0426C35.7629 35.4747 35.1768 35.7175 34.5656 35.7175H18.4352C17.8241 35.7175 17.2379 35.4747 16.8058 35.0426C16.3736 34.6104 16.1309 34.0243 16.1309 33.4131V23.0436C16.1309 22.4324 16.3736 21.8463 16.8058 21.4142C17.2379 20.982 17.8241 20.7392 18.4352 20.7392Z" stroke="white" stroke-width="1.84348" stroke-linecap="round" stroke-linejoin="round"/>
<path d="M23.0439 27.6523C23.0439 28.569 23.4081 29.4482 24.0563 30.0965C24.7046 30.7447 25.5837 31.1088 26.5005 31.1088C27.4172 31.1088 28.2964 30.7447 28.9446 30.0965C29.5928 29.4482 29.957 28.569 29.957 27.6523C29.957 26.7356 29.5928 25.8564 28.9446 25.2082C28.2964 24.56 27.4172 24.1958 26.5005 24.1958C25.5837 24.1958 24.7046 24.56 24.0563 25.2082C23.4081 25.8564 23.0439 26.7356 23.0439 27.6523Z" stroke="white" stroke-width="1.84348" stroke-linecap="round" stroke-linejoin="round"/>
</g>
<defs>
<linearGradient id="paint0_linear_395_8250" x1="9.21739" y1="4.60869" x2="48.9674" y2="62.7935" gradientUnits="userSpaceOnUse">
<stop stop-color="#4D67A4"/>
<stop offset="1" stop-color="#5EB2CE"/>
</linearGradient>
<clipPath id="clip0_395_8250">
<rect width="27.6522" height="27.6522" fill="white" transform="translate(12.6738 12.6738)"/>
</clipPath>
</defs>
</svg>
