<svg width="16" height="16" viewBox="0 0 16 16" fill="none" xmlns="http://www.w3.org/2000/svg">
<rect width="16" height="16" fill="white" fill-opacity="0.01"/>
<path fill-rule="evenodd" clip-rule="evenodd" d="M9.1998 2.66667C9.1998 3.32942 8.66255 3.86667 7.9998 3.86667C7.33706 3.86667 6.7998 3.32942 6.7998 2.66667C6.7998 2.00393 7.33706 1.46667 7.9998 1.46667C8.66255 1.46667 9.1998 2.00393 9.1998 2.66667ZM9.1998 8.00001C9.1998 8.66275 8.66255 9.20001 7.9998 9.20001C7.33706 9.20001 6.7998 8.66275 6.7998 8.00001C6.7998 7.33727 7.33706 6.80001 7.9998 6.80001C8.66255 6.80001 9.1998 7.33727 9.1998 8.00001ZM7.9998 14.5333C8.66255 14.5333 9.1998 13.9961 9.1998 13.3333C9.1998 12.6706 8.66255 12.1333 7.9998 12.1333C7.33706 12.1333 6.7998 12.6706 6.7998 13.3333C6.7998 13.9961 7.33706 14.5333 7.9998 14.5333Z" fill="#8A8A8A"/>
</svg>
