<svg width="37" height="37" viewBox="0 0 37 37" fill="none" xmlns="http://www.w3.org/2000/svg">
<g clip-path="url(#clip0_361_148)">
<path d="M30.326 11.4945C30.034 11.4607 29.7384 11.5131 29.4758 11.6452L22.6123 15.0747V21.1045L29.4758 24.534C29.7053 24.6487 29.9603 24.7029 30.2167 24.6915C30.473 24.6801 30.7222 24.6034 30.9407 24.4688C31.1591 24.3341 31.3396 24.1459 31.4649 23.922C31.5903 23.6981 31.6564 23.446 31.6571 23.1894V12.9899C31.6567 12.6209 31.5209 12.2649 31.2756 11.9893C31.0303 11.7137 30.6924 11.5376 30.326 11.4945Z" fill="#799CC2"/>
<path d="M7.53704 7.53735C5.05726 7.53735 3.01465 9.57997 3.01465 12.0597V24.1194C3.01465 26.5992 5.05726 28.6418 7.53704 28.6418H19.5967C22.0765 28.6418 24.1191 26.5992 24.1191 24.1194V12.0597C24.1191 9.57997 22.0765 7.53735 19.5967 7.53735H7.53704Z" fill="#799CC2"/>
</g>
<defs>
<clipPath id="clip0_361_148">
<rect width="36.1791" height="36.1791" fill="white"/>
</clipPath>
</defs>
</svg>
